<?xml version="1.0" encoding="UTF-8"?><svg id="Capa_2" xmlns="http://www.w3.org/2000/svg" width="780.89" height="705.33" viewBox="0 0 780.89 705.33"><defs><style>.cls-1{fill:#202020;stroke:#0f0f0f;stroke-width:4.17px;}.cls-1,.cls-2,.cls-3,.cls-4{stroke-miterlimit:10;}.cls-5,.cls-6{stroke-width:0px;}.cls-5,.cls-2{fill:#1b76ff;}.cls-7{stroke-linecap:round;stroke-linejoin:round;}.cls-7,.cls-2,.cls-3,.cls-4{stroke:#000;}.cls-7,.cls-2,.cls-4{stroke-width:4.08px;}.cls-7,.cls-4{fill:#ff5740;}.cls-3{fill:none;stroke-width:2.04px;}</style></defs><g id="Capa_1-2"><polygon class="cls-1" points="320.31 695.95 183.86 353.64 47.41 11.32 412.21 63.34 777.01 115.35 548.66 405.65 320.31 695.95"/><polygon class="cls-5" points="300.65 703.32 159.57 353.64 18.49 3.96 394.45 57.56 770.42 111.17 535.53 407.24 300.65 703.32"/><polygon class="cls-3" points="300.65 703.32 159.57 353.64 18.49 3.96 394.45 57.56 770.42 111.17 535.53 407.24 300.65 703.32"/><path class="cls-7" d="m357.45,449.8s7.67,68.99-11.71,76.48c-11.3,4.37-17.49-4.32-20.68-12.32-2-5.01-3-10.35-3.18-15.73-.71-21.34-3.68-109.88-4.88-134.46-1.37-28.02-9.32-77.04,10.64-77.98,19.97-.94,24.26,13.36,24.26,13.36,0,0,13.21,28.72,11.94,55.89,0,0,3.65-95.55,27.72-95.29,18.49.2,20.99,37.41,21.15,54.67.08,7.92.47,15.84,1.1,23.74l9.35,116.67s20,78.33,9.26,95.73c-5.37,8.7-13.44,6.59-20.17,2.32-7.78-4.94-13.13-12.84-15.34-21.72-4.86-19.52-12.67-64.85-4.45-134.36,0,0-5.55,64.34-16.07,64.27-10.52-.07-23.46-37.97-23.23-63.73l4.29,52.48Z"/><path class="cls-7" d="m191.14,7.43c-3.81,2.69-5.96,6.91-6.16,11.31-1.42,30.6-11.94,199.43-11.06,209.09.97,10.61,10.31,42.75,31.57,33.9,0,0,9.67,3.54,7.73-59.26-1.67-54.16,8.17-138.59,10.91-160.78.55-4.48.43-9.01-.38-13.46-1.45-8.04-5.47-17.98-11.5-21.22-7.19-3.87-14.9-3.99-21.12.41Z"/><path class="cls-7" d="m259.98,189.26s.04,69.4-20.04,74.76c-11.72,3.12-16.91-6.18-19.2-14.48-1.43-5.2-1.85-10.61-1.44-15.98,1.64-21.29,8.41-109.62,9.92-134.19,1.71-28-.81-77.59,19.14-76.36,19.95,1.22,22.64,15.89,22.64,15.89,0,0,9.98,29.98,5.73,56.85,0,0,14.12-94.59,38.03-91.73,18.36,2.19,16.75,39.45,15.02,56.63-.8,7.89-1.28,15.8-1.52,23.72l-3.52,116.98s11.27,80.03-1.31,96.16c-6.29,8.07-14.08,5.1-20.31.13-7.19-5.75-11.64-14.18-12.87-23.25-2.69-19.93-5.47-65.83,10.34-134.05,0,0-12.58,63.36-23.03,62.15-10.45-1.21-19.15-40.27-16.09-65.86l-1.5,52.63Z"/><path class="cls-7" d="m374.21,247c-.2,3.09-.33,6.18-.43,9.28-.23,7.25-2.27,19.54-12.96,23.93-15.55,6.39-24.8-12.57-26.12-42.91-1.32-30.34-4.39-132.86-1.51-147.97,2.87-15.11,28.21-92.87,86.55-86.97,58.34,5.9,1.95,94.62,1.95,94.62,0,0-18.71,25.59-40.33,39.44-5.88,3.76-9.19,10.19-8.94,16.89.9,24.28,2.74,78.85,1.79,93.7Z"/><path class="cls-2" d="m371.79,92.96s5.97-24.44,21.96-32.29c15.99-7.85-19.77,46.08-21.96,32.29Z"/><path class="cls-4" d="m421.45,254.09c-2.84-3.82-4.21-8.48-4.21-13.2.03-30.56,2.59-211.39,58.39-223.59,0,0,14.79-8.9,35.1,18.27,20.31,27.17,13.95,114.31-24.46,127.96,0,0,46.62,119.08,49.98,122.74,3.35,3.66,14.04,30.55,6.35,39.58-7.69,9.03-25.1,2.85-25.1,2.85,0,0-48.01-64.12-58.35-153.53,0-.04-.06-.04-.06,0,.02,5.71.06,54.68-3.8,71.84-4.28,19.04-19.36,16.13-19.36,16.13,0,0-7.76.02-14.49-9.04Z"/><path class="cls-2" d="m474.22,117.17s-5.23-24.05,5.79-37.67c11.02-13.62,2.18,48.9-5.79,37.67Z"/><path class="cls-7" d="m537.1,51.42c-.4.95.42-.94,0,0h0Z"/><path class="cls-7" d="m577.04,29.79c-27.01-4.38-37.94,16.94-39.94,21.63.42-.94-.4.95,0,0-4.37,9.85-25.05,59.58-24.08,116.45.02,1.05.04,2.11.08,3.17,1.35,43.22,18.06,69.77,29.07,82.68,7.37,8.64,19.6,13.56,32.51,12.58,12.96-.98,27.05-7.69,29.44-31.43,4.59-45.58,5.49-90.59,3.81-110.5-1.68-19.92-.01-89.58-30.89-94.58Zm-5.28,104.92c.26,10.79.08,34.86-.71,58.99-.41,12.57-2.74,15.22-4.88,14.88-2.13-.34-4.15-3.8-5.36-8.92-1.81-7.66-4.54-23.02-4.73-46.28,0-.57,0-1.14-.01-1.7-.12-30.56,3.34-55.84,4.06-60.82.33-2.38,2.15-13.07,6.61-8.92,5.09,4.75,4.76,41.99,5.02,52.78Z"/><path class="cls-7" d="m560.13,90.84c-.07.48.07-.48,0,0h0Z"/><path class="cls-7" d="m472.8,494.85c-.08,2.99-.08,5.99-.06,8.98.06,7.01-1.5,18.95-12,23.53-15.28,6.65-25.28-11.39-27.8-40.68-2.52-29.29-9.65-128.29-7.38-142.98,2.27-14.69,24.51-90.63,83.03-86.71,58.53,3.91,5.7,91.4,5.7,91.4,0,0-17.68,25.31-38.73,39.35-5.72,3.82-8.78,10.13-8.27,16.6,1.86,23.44,5.86,76.13,5.5,90.51Z"/><path class="cls-2" d="m472.55,332.62s5-23.81,20.66-31.88c15.66-8.08-17.93,45.14-20.66,31.88Z"/><path class="cls-7" d="m274.34,263.46c-5.39.78-9.64,4.94-10.64,10.25-5.58,29.81-27.54,145.46-33.68,162.92-6.82,19.36-32.72,112.43-12.01,115.3,20.71,2.87,27.75-30.77,27.75-30.77,0,0,14.5-62.37,23.19-62.37,0,0,7.04-1.23,5.38,9.85-1.66,11.08-7.87,107.92,24.44,110.79,32.3,2.87,24.94-42.25,24.94-42.25l-12.29-86.18c-.71-4.95-1.25-9.92-1.63-14.9-2.03-26.59-8.76-115.42-8.95-129.54-.2-15.28-5.83-46.1-26.5-43.09Z"/><path class="cls-2" d="m276.09,380.69c-.4-1.95-2.54-2.15-3.15-.29-3.08,9.43-7.71,31.67-4.67,36.22.14.21.28.4.43.59,3.95,4.88,10.66.66,10.29-6.28-.45-8.52-1.4-22.77-2.91-30.23Z"/><path class="cls-7" d="m551.18,255.28c-5.39.78-9.64,4.94-10.64,10.25-5.58,29.81-27.54,145.46-33.68,162.92-6.82,19.36-32.72,112.43-12.01,115.3,20.71,2.87,27.75-30.77,27.75-30.77,0,0,14.5-62.37,23.19-62.37,0,0,7.04-1.23,5.38,9.85-1.66,11.08-7.87,107.92,24.44,110.79,32.3,2.87,24.94-42.25,24.94-42.25l-12.29-86.18c-.71-4.95-1.25-9.92-1.63-14.9-2.03-26.59-8.76-115.42-8.95-129.54-.2-15.28-5.83-46.1-26.5-43.09Z"/><path class="cls-6" d="m552.93,372.52c-.4-1.95-2.54-2.15-3.15-.29-3.08,9.43-7.71,31.67-4.67,36.22.14.21.28.4.43.59,3.95,4.88,10.66.66,10.29-6.28-.45-8.52-1.4-22.77-2.91-30.23Z"/><path class="cls-7" d="m186.04,446.81s1.36-59.15,27.33-57.95c25.98,1.2,8.08,111.09-19.88,128.81-14.68,9.3-26.27-3.77-33.98-18.28-7.39-13.91-11-29.25-11.08-44.74-.23-47.51,3.78-177.94,53.93-199.75.91-.4,1.81-.81,2.68-1.29,3.82-2.11,17.78-7.86,26.87,14.3,4.95,12.07,5.51,25.36,1.69,37.78-1.48,4.81-3.61,9.91-6.66,14.52-3.47,5.23-11.35,6.28-16.23,2.1-4.19-3.59-7.36-10.44-4.8-23.52,0,0-24.85,93.15-19.88,148.01Z"/><path class="cls-6" d="m137.53,325.67c1.35.45,3.22,2.06,3.84,3.73.59,1.68.94,2.73.97,3.07.02.31.2.76.49.89.29.13.61.67.33,1.09-.26.38-.59,1.55-1.75,1.86-1.12.29-2.66,1.38-4.31,1.81-1.68.44-5.78,2.02-6.6,2.55-.79.52-.77,1.1-1.36.73-.56-.37-.82-.41-1.07-.87-.24-.53-.58-.85-1.25-.8-.63.07-3.51-.69-3.88-1.63-.37-.94.06-1.69.54-2.57.48-.88,1.13-1.41,1.94-1.72.81-.31,2.22-.58,2.84-.23.62.35,1.31.26,1.25-.48-.04-.71-.43-2.48.6-4.33,1-1.84,1.86-2.63,3.17-3.14,1.31-.51,2.91-.39,4.26.06Zm-6.05,4.91c-.42,1.73.12,2.84.59,3.42.48.61-.48.88-.67,1.27-.2.36-.19.66-.6.82-.42.16-1.12-.47-2.33-.49-1.21-.02-1.67-.05-2.21.16-.57.22-1.21.68-1.04,1.2.29,1,2.22.74,2.48.95.21.2,1.79,0,3.6-.31,1.83-.33,2.19-.64,2.41-1.04.23-.37,1.69-.69,3.16-1.33,1.51-.62.9-.59,1.27-1.5.35-.94.57-.29,1.71-.38,1.1-.08,0-1.59-.58-3.04s-1.98-2.4-2.83-2.73c-.87-.36-2.26-.31-3.18.05-.93.36-1.33,1.17-1.77,2.94Z"/><path class="cls-6" d="m135.65,313.89c.67.92,1.65,2.7,2.06,3.75.42,1.05,0,3.23-1.02,3.7-1.03.43-.22.75-1.48,1.06-1.24.27-2.25-.56-2.81-.58-.53-.04-1-.34-1.6-.66-.6-.29-1.33-.67-1.08.14.27.76.37,1.91.2,3.05-.2,1.15-.61,1.94-1.48,2.27-.9.35-3.75-.25-5.48-1.15-1.7-.91-3.86-2.81-4.04-3.27-.18-.45.19-.84.38-1.12.18-.24.31-.71.51-.79.21-.08,1.21.09,1.33.39.12.3-.22.67.17.94.42.29,1.28.55,1.74.93.42.36,1.69,1.15,2.52,1.42.86.26,1.78.42,2.2.26s.51-.44-.11-1.76c-.62-1.32-.37-1.91-.21-2.73.2-.81.55-2.02,1.45-1.81.9.17,3.76,1.43,4.46,1.61.68.15,1.19.31,1.9.03s.69-.69.3-1.68c-.38-.96-1.75-4.08-2.36-4.68-.64-.58-.5-1.27.13-.99.67.3,1.67.74,2.31,1.68Z"/><path class="cls-6" d="m128.34,300.84c.36.91.34,3.66,0,5.07-.32,1.45-1.15,3.02-1.59,3.39-.45.35-.47,1.08-1.25,1.38-.81.31-1.01-.2-1.39-1.17-.38-.96-.25-1.33-.55-2.08-.28-.72-.87-1.16-1.35-1.42-.5-.29-.54-.59-1.35-.28-.78.3-1.01.67-1.48,1.3-.47.64-.66.95-.46,1.46.2.51,1.79,1.74,2.84,2.31,1.08.56,2.2,1.3,2.88,1.18.67-.12,1.21-.26,2.43-.21,1.25.04,2.87-.14,3.62-.43.72-.28,1.08-1.01,1.71-1.25.6-.23,1.28-.15,1.44.24.15.39.11.79-.07,1.31-.17.52-.15,1.1-1.26,1.53-1.14.44-2.75,1.58-3.35,1.12-.58-.51-1.9-.45-3.62-.37-1.73.08-4.14-.62-4.94-1.18-.79-.53-1.96-1.57-2.58-1.92-.59-.36-.84-1-1.07-1.57-.46-1.18.62-2.71,1.57-3.8.92-1.08,1.78-1.52,2.61-1.84.87-.33,2.02-.19,2.67.15.65.34,1.05,1.09,1.27,1.66.23.57.68,1.82,1.07.7.4-1.16.7-3.02.19-4.14-.51-1.12-.06-1.82.62-1.66.7.11,1.02-.39,1.37.51Z"/><path class="cls-6" d="m123.24,289.05c.48.26,2.3,1.3,3.28,3.77.97,2.47.54,5.84-5.4,8.13-2.27.88-5.51,1.47-6.22,1.68-.72.17-2.31,1.03-2.72,0-.18-.45-.06-.85.11-1.12.14-.26.4-.64.82-.8.42-.16,1.17,0,1.66-.16.46-.14,2.79-.52,4.07-1.02,1.25-.48,4.03-1.91,5.04-3.1.98-1.18.99-1.67.58-2.73-.42-1.05-1.54-2.15-2.3-2.69-.73-.55-.89-1.22-.64-1.63.29-.39,1.24-.62,1.72-.35Z"/><path class="cls-6" d="m123.22,285.31c.62-.17,1.22.05,1.44.59.21.54.16,1.36-2.02,2.13-2.16.8-6.31,2.51-7.83,3.2-1.5.65-4.27,1.58-4.81,1.69-.56.15-1.03-.09-1.15-.39-.2-.51.27-.97.54-1.43.27-.45.83-.95,1.69-1.14.85-.19,2.9-.85,5.02-1.94,2.09-1.09,2.73-1.54,4.15-1.88,1.4-.37,2.33-.62,2.97-.84Z"/><path class="cls-6" d="m104.9,275.09c1.23-.47,3.38-1.2,5-1.9,1.63-.67,7.05-2.38,8.12.34,1.08,2.74-1.23,5.17-2.34,6.46-1.11,1.3-1.08,1.63-1.7,1.98-.65.36-1.21.61-1.09.91.12.3,1.27.34,2.2.09.9-.25,4.15-1.01,4.69-1.02.54-.03.85.16.98-.31.17-.45.99-.21,1.34-.17.37.07.47.23.61.6.15.39-.25,1.63-.97,1.9-.72.28-2.93.44-3.83.68-.92.28-3,.15-4.34.6-1.33.48-2.65.78-3.07.77-.46-.03-1.29.05-1.54-.59-.19-.48-.57-.48.24-1.58.78-1.07,1.93-2.8,2.9-3.66.94-.85,1.98-1.7,2.71-2.65.75-.98.88-1.18.53-2.05-.33-.84-2.01-.47-3.38-.12-1.33.38-7.45,2.05-8.2,2.34-.72.28-.97.34-1.48-.09-.49-.47-1-.87-.36-1.53.62-.69.66-1.3.99-1.42.33-.13.79.88,1.99.41Z"/><path class="cls-6" d="m107.88,260.54c.14.36-.15.85,0,1.22.15.39,1.05,1.78,1.14,2.03.11.27,1.01,1.87,1.11,2.11.11.27.53.56.71,1.01.19.48-.37,1.78-1.06,2.04-.66.25-1.31.09-1.41-.18-.09-.24-.01-.9-.33-1.26-.29-.38-1.02-1.38-1.23-1.89-.2-.51-.86-1.82-1.1-2.18-.23-.33-.42-1.23-.55-1.14-.11.08-.29-.13-.22-.47.08-.31.62-1.21,1.01-1.36.39-.15.6-.58.87-.68.24-.09.93.44,1.06.77Z"/><path class="cls-6" d="m96.68,246.28c-.14.51-.96,2.28-1.27,3.58-.31,1.3-.24,2,.03,2.7.26.66.98.84,1.8,1.08.81.21.43.74,1.74.82,1.31.09,3.5.24,5.8-.65,2.33-.9,2.69-2.71,2.77-3.19.12-.5.38-1.12-.16-2.51-.53-1.36-1.56-2.91-2.05-3.55s-.42-1.23.18-1.21c.59.01,1.3-.29,1.93.78.63,1.08,1.42,2.3,1.87,3.45s.6,2.75.14,3.77c-.46,1.01-.32,1.2.16.67.48-.53.84-.15-.31.96-1.11,1.12-2.12,2.49-4.06,3.24-1.94.75-5.52,1.02-6.84.73-1.34-.25-2.35-.1-2.85-.67-.52-.53-1.41-.95-1.89-2.19-.76-1.93.25-3.39.39-4.7.15-1.45,1.41-3.05,1.74-3.28.29-.22,1.05-.3.9.18Z"/><path class="cls-6" d="m101.03,235.91c.87.29,1.92.86,2.4,2.06.94,2.38-.45,3.93-.77,4.95-.33,1-2.19,2.31-3.33,2.74-1.13.44-3.21,1.1-3.76.86-.54-.24-1.28.15-1.67-.57-.4-.75-.94-1.51-1.5-1.19-.56.32-1.32.23-1.59-.46-.24-.6-.26-1.18.4-1.86.62-.69.86-2.1,1.4-2.56.54-.45,1.09-1.95,1.88-2.05.78-.13,1.42-1.21,2.97-1.81s2.65-.43,3.56-.13Zm-7.32,5.61c-.38.43-.47.81-.35,1.11s.89-.1,1.39-.05c.5.05.4.75.51,1.12.09.41.71.49,1.47.33.77-.16,1.87-.86,3.03-1.31,1.19-.46,1.12-1.34,1.39-1.62.29-.32.62-.45.12-1.71-.51-1.3-.97-.88-2-1.24-1.02-.4-1.81.21-3.33.8-1.49.58-1.31,1.48-2.23,2.56Z"/><path class="cls-6" d="m97.27,223.13c.48.26,2.3,1.3,3.28,3.77.97,2.47.54,5.84-5.4,8.13-2.27.88-5.51,1.47-6.22,1.68-.72.18-2.31,1.03-2.72,0-.18-.45-.06-.85.11-1.12.14-.26.4-.64.82-.8.42-.16,1.17,0,1.66-.16.46-.14,2.79-.52,4.07-1.02,1.25-.48,4.03-1.91,5.05-3.1.98-1.18.99-1.67.58-2.73-.42-1.05-1.54-2.15-2.3-2.69-.73-.55-.89-1.22-.64-1.63.29-.39,1.24-.62,1.72-.35Z"/><path class="cls-6" d="m93.33,216.38c.87.29,1.92.85,2.4,2.06.94,2.38-.45,3.93-.77,4.95-.33,1-2.19,2.31-3.32,2.74-1.14.44-3.21,1.1-3.76.86-.54-.24-1.28.15-1.67-.57-.4-.75-.94-1.51-1.5-1.19-.56.32-1.32.23-1.59-.46-.24-.6-.26-1.19.4-1.86.62-.69.86-2.1,1.4-2.56.54-.45,1.09-1.95,1.88-2.05.78-.13,1.42-1.21,2.97-1.81s2.65-.43,3.56-.13Zm-7.32,5.61c-.38.43-.47.81-.35,1.11s.89-.1,1.39-.05c.5.05.4.75.51,1.12.09.41.71.49,1.47.33.77-.16,1.87-.86,3.03-1.31,1.19-.46,1.12-1.34,1.39-1.62.29-.32.62-.45.12-1.71-.51-1.3-.97-.88-2-1.24-1.02-.4-1.81.21-3.33.8-1.49.58-1.31,1.48-2.23,2.56Z"/><path class="cls-6" d="m77.49,205.52c1.23-.47,3.38-1.2,5-1.9,1.63-.67,7.05-2.38,8.12.34,1.08,2.74-1.23,5.17-2.34,6.46-1.11,1.3-1.08,1.63-1.7,1.98-.65.36-1.21.61-1.09.91.12.3,1.27.34,2.2.09.9-.25,4.14-1.01,4.69-1.02.54-.03.85.16.98-.31.17-.45.99-.21,1.34-.17.37.07.47.23.61.6.15.39-.25,1.63-.97,1.9-.72.28-2.93.44-3.83.68-.92.29-3,.15-4.34.6-1.33.48-2.65.78-3.07.77-.46-.03-1.29.05-1.54-.59-.19-.48-.57-.48.24-1.59.78-1.07,1.93-2.79,2.9-3.66.94-.85,1.98-1.7,2.71-2.65.75-.98.88-1.17.53-2.05-.33-.84-2.01-.47-3.38-.12-1.33.38-7.45,2.05-8.2,2.34-.72.28-.97.34-1.48-.09-.49-.47-1-.87-.36-1.53.62-.69.66-1.3.99-1.42s.79.88,1.99.41Z"/><path class="cls-6" d="m87.97,195.87c.62-.17,1.22.05,1.44.59s.16,1.36-2.02,2.13c-2.16.8-6.31,2.51-7.83,3.2-1.5.65-4.27,1.58-4.81,1.69-.56.15-1.03-.09-1.15-.39-.2-.51.27-.97.54-1.43.27-.45.83-.95,1.69-1.14.85-.19,2.9-.84,5.02-1.94,2.09-1.08,2.73-1.54,4.15-1.88,1.4-.37,2.34-.62,2.97-.84Z"/><path class="cls-6" d="m76.39,182.56c.17.87.84,2.21,1.23,2.06.36-.14,2.15-1.7,2.77-2.22.61-.55.99-.63,1.51-.2.54.42,1.14.19,1.26.49.12.3-.51.54-.71,1-.16.48.29,1.17-.07,1.31-.39.15-1.12-.4-1.73.08s-1.38,1.12-1.66,1.37c-.25.24-.36.49.1,1.04.46.55,1.35,1.5,1.98,2.33.67.82,1.41,1.57,1.58,2.1.17.52.09.59.82.51.72-.1,5.28-.48,5.76-.77.26-.13.6-.13.87.12.24.25.46.31.58.61s-.4.64-.42.86c-.03.19-.15.68-.47.81-.36.14-.79-.25-1.46-.13-.64.11-4.96.6-6.88.79-1.91.22-8.07.24-8.82.49-.8.24-2.41,1.04-2.9-.2-.51-1.3,1-2.96,2.12-4.23,1.09-1.25,3.63-3.8,3.91-4.15.31-.36.53-.83.14-1.93-.39-1.07-1.26-2.67-.75-2.87.54-.21,1.08-.14,1.25.73Zm-3.2,9.61c-1.05,1-.06,1.17.49.99.59-.16,4.81-.47,5.9-.4,1.09.06.74-.67.38-1.05-.35-.35-1.89-2.43-2.3-3.21-.44-.77-.72-.17-1.17.35-.48.53-2.72,2.79-3.3,3.33Z"/><path class="cls-6" d="m73.11,172.3c.14.36-.15.85,0,1.22.15.39,1.05,1.78,1.14,2.03.11.27,1.01,1.87,1.11,2.11.11.27.53.56.71,1.01.19.48-.37,1.77-1.05,2.04-.66.25-1.31.09-1.41-.18-.09-.24-.01-.9-.33-1.26-.29-.38-1.02-1.38-1.23-1.89s-.86-1.82-1.1-2.18c-.23-.33-.42-1.23-.55-1.14-.11.08-.29-.13-.22-.47.08-.31.62-1.21,1.01-1.36.39-.15.6-.58.87-.68.24-.09.93.44,1.06.77Z"/><path class="cls-6" d="m68.14,151.57c.15.39.58.96-.65,1.57-1.2.64-1.99.98-2.67,1.69-.68.72-1.55,1.23-2.48,1.65-.97.41-2.74,1.44-2.57,1.86.17.42,1.33.67,2.23.6.88-.03,2.25.21,2.84.05.58-.19,1.08.21,2.08.03.99-.21,2.75-.54,3.27.78.52,1.33-.54,2.47-2.23,3.51-1.65,1.05-3.14,1.91-3.01,2.24.14.36,1.11.65,1.93.54.82-.11,1.28.02,2.2-.36.91-.39,1.34.07,2.56-.15,1.22-.23,2.18-.15,3.52-.32,1.34-.17,1.55-.08,2.15-.31.63-.24,1,.17,1.12.47.12.3-.35,1.56-1.1,1.85-1.11.43-3.15.38-5.03.77-1.88.38-2.66-.36-3.77.03-1.13.37-2.72-.09-3.73-.19-1-.1-2.3-.33-2.65-.26-.31.08-.72.1-.87-.29-.15-.39.16-1.42.97-2.18.83-.77,1.94-1.62,2.86-2.18.88-.55,1.57-.99,1.42-1.38-.15-.39-1.68-.5-2.63-.37-.95.12-2.97-.1-4.36-.4-1.39-.3-2.77-.49-3.01-1.09-.24-.6-.11-1.59.7-2.32.8-.76,2.61-2.12,3.91-2.66,1.3-.54,1.97-1.04,2.4-1.52.44-.45,1.54-.46,1.98-.91.4-.47.96-.96,1.47-1.16.48-.18,1.02.06,1.16.42Z"/><path class="cls-6" d="m53.18,143.91c.15.39-.06.89,1.12.23,1.15-.65,2.28-1.54,4.26-2.3,1.97-.76,4.39-1.35,5.76-1.19,1.35.2,3.04.98,3.56,2.31.51,1.3.42,2.9-.28,3.76-.69.86-.38,1.47-1.37,2.47-.94,1.02-4.06,3.76-6.42,4.67s-4.59.77-4.87.04c-.2-.51.05-.75.32-1.03.26-.31.88-.9,1.42-.69.52.18,1.73-.6,2.71-.73.99-.11,2.45-1.47,3.36-2.13.9-.69,2.42-1.73,2.67-2.56.27-.8.97-1.21.48-2.44-.5-1.27-2.24-2.02-6.45-.39-4.21,1.63-6.02,3.16-6.54,3.57-.56.42-.56.94-1.43.48-.9-.45-.63-.73-.43-1.53.2-.81.24-1.41.14-1.83-.1-.41.42-.68.89-.8.47-.11.95-.3,1.1.09Z"/><path class="cls-6" d="m47.51,129.43c1.23-.47,3.38-1.2,5-1.9,1.63-.66,7.05-2.38,8.12.34,1.08,2.74-1.23,5.17-2.34,6.47-1.11,1.3-1.08,1.63-1.7,1.98-.65.36-1.21.61-1.09.91.12.3,1.27.34,2.2.09.9-.25,4.14-1.01,4.69-1.02.54-.03.85.16.98-.31.17-.45.99-.21,1.34-.17.37.07.47.24.61.6.15.39-.25,1.63-.97,1.9-.72.28-2.93.44-3.83.68-.92.29-3,.15-4.34.6-1.33.48-2.65.78-3.07.77-.46-.03-1.29.05-1.54-.59-.19-.48-.57-.48.24-1.58.78-1.07,1.93-2.8,2.9-3.66.94-.85,1.98-1.7,2.71-2.64.75-.98.88-1.18.53-2.05-.33-.84-2.01-.47-3.38-.12-1.33.38-7.45,2.05-8.2,2.34-.72.28-.97.34-1.48-.09-.5-.47-1-.87-.36-1.53.62-.69.66-1.3.99-1.42s.79.88,1.99.41Z"/><path class="cls-6" d="m57.99,119.78c.62-.17,1.22.05,1.44.59.21.54.16,1.36-2.02,2.13-2.16.8-6.31,2.51-7.83,3.2-1.5.65-4.27,1.58-4.81,1.69-.56.15-1.03-.09-1.15-.39-.2-.51.27-.97.54-1.43.27-.45.83-.95,1.69-1.14.85-.19,2.9-.85,5.02-1.94,2.09-1.09,2.73-1.54,4.15-1.88,1.4-.37,2.33-.62,2.97-.84Z"/><path class="cls-6" d="m42.88,109.75c-.14.51-.96,2.28-1.27,3.58-.31,1.3-.24,2.01.03,2.7.26.66.98.84,1.8,1.08.8.21.43.74,1.74.82,1.31.09,3.5.24,5.8-.65,2.33-.9,2.69-2.71,2.77-3.19.12-.5.38-1.12-.16-2.51-.53-1.36-1.56-2.91-2.05-3.55s-.42-1.23.18-1.21c.59.01,1.3-.29,1.93.78s1.42,2.3,1.87,3.45c.45,1.15.6,2.75.14,3.77-.46,1.01-.32,1.2.16.67.48-.53.84-.15-.31.96-1.11,1.12-2.12,2.49-4.06,3.24s-5.52,1.02-6.84.73c-1.34-.25-2.35-.1-2.85-.67-.52-.53-1.41-.95-1.89-2.19-.76-1.93.25-3.4.39-4.7.15-1.45,1.41-3.05,1.74-3.28.29-.22,1.05-.3.89.17Z"/><path class="cls-6" d="m45.37,95.17c.83.27,1.21.36,1.39.82.19.48-.57,1.26-1.45,1.39-.87.16-1.42.86-1.98,1.18-.56.32-.91.39-.52,1.14.39.72,1.35,2.29,1.61,2.78.29.48.71,1.01.9,1.49.18.45.2.76.95.4.74-.32,2.04-1.03,2.77-1.52.75-.46,1.61-.9,2.04-.86.45,0,.75.23.85.5.26.66-.55.98-.81,1.53-.26.55-.51,1.06-1.61,1.49-1.08.42-2.98,1.26-3.82,1.83-.84.57-5.23,2.27-5.95,2.55-.72.28-1.18-.03-1.36-.48-.19-.48.29-.67.47-.98.22-.33.29-.74,1.12-.99.84-.22,2.69-1.11,3.02-1.24.33-.13.48-.26.15-1.2-.31-.96-.36-1.53-.9-2.29-.54-.76-.86-2.45-1.41-2.09-.55.35-2.81,1.96-4.09,2.45-1.25.49-2.9,1.02-3.05.66-.15-.39.35-.86.77-1.45.41-.54.36-1.01,1.3-1.34.95-.3,1.88-.66,2.42-1.11.57-.47-.03-.61.9-1.11,1.71-.9.98-1.46,1.81-1.71.79-.27,1.86-.69,2.61-1.32.78-.65,1-.77,1.86-.51Z"/><path class="cls-6" d="m38.4,84.21c.14.36-.15.85,0,1.22.15.39,1.05,1.78,1.14,2.03.11.27,1.01,1.87,1.11,2.11.11.27.53.56.71,1.01.19.48-.37,1.78-1.06,2.04-.66.25-1.31.09-1.41-.18-.09-.24-.01-.9-.33-1.26-.29-.38-1.02-1.38-1.23-1.89-.2-.51-.86-1.82-1.1-2.18-.23-.33-.42-1.23-.55-1.14-.11.08-.29-.13-.22-.47.08-.31.62-1.21,1.01-1.36.39-.15.6-.58.87-.68.24-.09.93.44,1.06.77Z"/><path class="cls-6" d="m36.55,63.98c.98,2.05-.58,1.23.69,3.49,1.23,2.24,2.35,3.78,2.79,4.72.45.97,1.19,3.89,1.21,4.57.04.71-.48,1.75-.84,1.89-.36.14-1.53-.48-2.3-.95-.8-.46-2.62-1.42-3.23-1.74-.6-.29-1.72-.62-2.28-.89-.36-.14-1.09-.41-.09,1.01.39.54.25.91-.31,1.3-.54.38-1.08.83-1.37.11-.29-.72-.74-1.87-1.13-2.17-.44-.32-.27-.69-.99-1.11-.7-.46-1.8-.55-2.4-.32-.63.24-1.13-.15-.99.8.13.96,0,1.74.91,2.57.91.83,1.13,2.17,1.92,2.94.74.75,1.33,1.01,1.55,1.59.23.57-.07,1.73-.52,1.91-.48.19-.49-.47-.95-.4-.42.06-.85-.68-1.2-1.31-.38-.62-1.25-1.67-1.94-2.83-.7-1.16-.84-1.52-1.08-2.12-.55-1.39-.27-1.74-.62-2.44-.31-.71.23-1.51.59-2,.33-.47,1.47-.98,1.85-1.06.37-.11,1.08-.14,1.37-.01.26.14.63.28.51-.89-.13-1.2.99-2.12,1.22-2.14.22-.05.42.46.68.68.26.21.08.63-.04,1.2-.14.61.06,1.12.64,1.53.58.43,2.36.75,3.93,1.57s3.33,1.56,3.72,1.83c.41.26,1.18.9.87-.51-.31-1.41-.96-1.99-2.6-4.94-1.63-2.92-2.28-5.17-2.31-5.85-.04-.71.3-1.51.69-1.66.42-.16,1.08-.42,2.06,1.64Z"/><path class="cls-6" d="m19.15,57.54c.15.39-.06.89,1.12.23,1.15-.66,2.28-1.54,4.25-2.31,1.97-.76,4.39-1.35,5.76-1.19,1.35.21,3.04.98,3.56,2.31.51,1.3.42,2.9-.28,3.76-.69.86-.38,1.47-1.37,2.47-.94,1.02-4.06,3.76-6.42,4.67-2.36.91-4.59.77-4.87.04-.2-.51.05-.75.32-1.03.26-.31.89-.9,1.42-.69.52.18,1.73-.6,2.71-.73.99-.11,2.45-1.47,3.36-2.13.9-.69,2.42-1.73,2.67-2.56.27-.8.97-1.21.48-2.44-.5-1.27-2.24-2.02-6.45-.39-4.21,1.63-6.02,3.16-6.54,3.57-.56.42-.56.94-1.43.48-.9-.45-.63-.73-.43-1.54.2-.81.24-1.41.14-1.83-.09-.42.42-.68.89-.8s.95-.3,1.1.09Z"/><path class="cls-6" d="m25.42,39.66c.36.91.34,3.66,0,5.07-.32,1.45-1.15,3.02-1.59,3.39-.45.35-.47,1.08-1.24,1.38-.81.31-1.01-.2-1.39-1.17s-.25-1.33-.54-2.08c-.29-.72-.87-1.16-1.35-1.42-.5-.3-.54-.59-1.35-.28-.78.3-1.01.67-1.48,1.3-.47.64-.66.95-.46,1.46.2.51,1.79,1.74,2.84,2.31,1.08.56,2.2,1.3,2.88,1.18.67-.12,1.21-.26,2.43-.21,1.25.04,2.87-.14,3.62-.43.72-.28,1.08-1.01,1.71-1.25.6-.23,1.28-.15,1.44.24.15.39.11.79-.07,1.31-.17.52-.15,1.1-1.26,1.53-1.14.44-2.75,1.58-3.35,1.12-.58-.51-1.9-.45-3.62-.37-1.73.08-4.14-.62-4.94-1.18-.79-.53-1.96-1.57-2.58-1.92-.59-.36-.84-1-1.07-1.57-.46-1.18.62-2.71,1.57-3.8.92-1.08,1.78-1.52,2.61-1.84.87-.33,2.02-.19,2.67.15.65.34,1.05,1.09,1.27,1.66.23.57.68,1.82,1.07.7.4-1.16.7-3.02.19-4.14-.51-1.12-.06-1.82.62-1.66.7.11,1.02-.39,1.37.51Z"/><path class="cls-6" d="m24.33,34.35c.62-.17,1.22.05,1.44.59.21.54.16,1.36-2.02,2.13-2.16.8-6.31,2.51-7.83,3.2-1.5.65-4.27,1.58-4.81,1.69-.56.15-1.03-.09-1.15-.39-.2-.51.27-.97.54-1.43.27-.45.83-.95,1.69-1.14.85-.19,2.9-.84,5.02-1.94,2.09-1.08,2.73-1.54,4.15-1.88,1.4-.37,2.34-.62,2.97-.84Z"/><path class="cls-6" d="m9.22,24.31c-.14.51-.96,2.28-1.27,3.58-.31,1.3-.24,2,.03,2.7.26.66.98.84,1.8,1.08.81.21.43.74,1.74.82,1.31.09,3.5.24,5.8-.65,2.33-.9,2.69-2.71,2.77-3.19.12-.5.38-1.12-.16-2.51-.53-1.36-1.56-2.91-2.05-3.55-.49-.64-.42-1.23.18-1.21.59.01,1.3-.29,1.93.78.63,1.08,1.42,2.3,1.87,3.44.45,1.15.6,2.76.14,3.77-.46,1.01-.32,1.2.16.67.48-.53.84-.15-.31.95-1.11,1.12-2.12,2.49-4.06,3.24-1.94.75-5.52,1.02-6.84.73-1.34-.25-2.35-.1-2.85-.67-.52-.53-1.41-.95-1.89-2.19-.76-1.93.25-3.39.39-4.7.15-1.45,1.41-3.05,1.74-3.28.29-.22,1.05-.3.9.18Z"/><path class="cls-6" d="m11.71,9.73c.83.27,1.21.37,1.39.82.19.48-.57,1.26-1.45,1.4-.87.16-1.42.86-1.98,1.18-.56.32-.91.39-.52,1.14.39.72,1.35,2.29,1.61,2.78.29.48.71,1.01.9,1.49.18.45.2.76.95.4.73-.32,2.04-1.03,2.77-1.52.75-.46,1.61-.9,2.04-.86.45,0,.75.23.85.5.26.66-.55.98-.81,1.53-.26.55-.51,1.06-1.61,1.49-1.08.42-2.98,1.26-3.82,1.83-.84.57-5.23,2.27-5.95,2.55-.72.28-1.18-.03-1.36-.48-.19-.48.29-.67.47-.98.22-.33.29-.74,1.12-.99.84-.22,2.69-1.11,3.02-1.24.33-.13.48-.26.15-1.2-.31-.96-.36-1.53-.9-2.29-.54-.76-.86-2.45-1.41-2.1-.55.35-2.81,1.96-4.09,2.45-1.25.49-2.9,1.02-3.05.66-.15-.39.35-.86.77-1.45.41-.54.36-1.01,1.3-1.34.95-.3,1.88-.66,2.42-1.11.57-.46-.03-.61.9-1.11,1.71-.9.98-1.45,1.81-1.71.79-.27,1.86-.69,2.61-1.32.78-.65,1-.77,1.86-.51Z"/></g></svg>