<?xml version="1.0" encoding="UTF-8"?><svg id="Capa_2" xmlns="http://www.w3.org/2000/svg" width="99.6" height="34.06" viewBox="0 0 99.6 34.06"><defs><style>.cls-1{fill:#fff;stroke-width:0px;}.cls-2{fill:none;stroke:#fff;stroke-miterlimit:10;stroke-width:.96px;}</style></defs><g id="Capa_1-2"><path class="cls-1" d="m24.1.22h6.04v2.16h-3.83v3.99h3.04v2.16h-3.04v4.64h3.83v2.16h-6.04V.22Z"/><path class="cls-1" d="m33.25,7.6L30.81.22h2.34l1.49,4.88h.04l1.53-4.88h2.09l-2.44,7.38,2.56,7.73h-2.34l-1.61-5.27h-.04l-1.65,5.27h-2.09l2.56-7.73Z"/><path class="cls-1" d="m39.31.22h3.26c2.22,0,3.3,1.32,3.3,3.74v1.49c0,2.42-1.09,3.74-3.3,3.74h-1.05v6.15h-2.22V.22Zm3.26,6.8c.71,0,1.09-.35,1.09-1.43v-1.79c0-1.08-.38-1.42-1.09-1.42h-1.05v4.64h1.05Z"/><path class="cls-1" d="m46.93.22h6.04v2.16h-3.83v3.99h3.04v2.16h-3.04v4.64h3.83v2.16h-6.04V.22Z"/><path class="cls-1" d="m54.08.22h3.28c2.3,0,3.28,1.14,3.28,3.48v.93c0,1.55-.46,2.55-1.45,2.98v.04c1.11.37,1.47,1.49,1.47,3.2v2.66c0,.73.02,1.27.24,1.84h-2.26c-.12-.39-.2-.63-.2-1.86v-2.76c0-1.4-.38-1.86-1.39-1.86h-.77v6.48h-2.22V.22Zm3.02,6.48c.83,0,1.33-.39,1.33-1.6v-1.17c0-1.08-.34-1.55-1.13-1.55h-1.01v4.32h.81Z"/><path class="cls-1" d="m62.03.22h2.22v15.11h-2.22V.22Z"/><path class="cls-1" d="m65.74.22h6.04v2.16h-3.83v3.99h3.04v2.16h-3.04v4.64h3.83v2.16h-6.04V.22Z"/><path class="cls-1" d="m72.89.22h2.78l2.15,9.05h.04V.22h1.97v15.11h-2.28l-2.66-11.03h-.04v11.03h-1.97V.22Z"/><path class="cls-1" d="m81.19,11.83V3.71c0-2.33,1.13-3.71,3.26-3.71s3.26,1.38,3.26,3.71v1.6h-2.09v-1.75c0-.99-.44-1.4-1.11-1.4s-1.11.41-1.11,1.4v8.44c0,.99.44,1.38,1.11,1.38s1.11-.39,1.11-1.38v-2.31h2.09v2.14c0,2.33-1.13,3.71-3.26,3.71s-3.26-1.38-3.26-3.71Z"/><path class="cls-1" d="m88.89.22h2.22v15.11h-2.22V.22Z"/><path class="cls-1" d="m94.3.22h3l2.3,15.11h-2.22l-.4-3v.04h-2.52l-.4,2.96h-2.05L94.3.22Zm2.42,10.1l-.99-7.47h-.04l-.97,7.47h1.99Z"/><path class="cls-1" d="m24.1,18.73h2.22v15.11h-2.22v-15.11Z"/><path class="cls-1" d="m27.81,18.73h3.16l1.41,10.82h.04l1.41-10.82h3.16v15.11h-2.09v-11.44h-.04l-1.61,11.44h-1.85l-1.61-11.44h-.04v11.44h-1.93v-15.11Z"/><path class="cls-1" d="m38.49,18.73h3.26c2.22,0,3.3,1.32,3.3,3.74v1.49c0,2.42-1.09,3.74-3.3,3.74h-1.05v6.15h-2.22v-15.11Zm3.26,6.8c.71,0,1.09-.35,1.09-1.43v-1.79c0-1.08-.38-1.42-1.09-1.42h-1.05v4.64h1.05Z"/><path class="cls-1" d="m46.1,18.73h3.28c2.3,0,3.28,1.14,3.28,3.48v.93c0,1.55-.46,2.55-1.45,2.98v.04c1.11.37,1.47,1.49,1.47,3.2v2.66c0,.73.02,1.27.24,1.84h-2.26c-.12-.39-.2-.63-.2-1.86v-2.76c0-1.4-.38-1.86-1.39-1.86h-.77v6.48h-2.22v-15.11Zm3.02,6.48c.83,0,1.33-.39,1.33-1.6v-1.17c0-1.08-.34-1.55-1.13-1.55h-1.01v4.32h.81Z"/><path class="cls-1" d="m53.9,30.26v-7.95c0-2.42,1.19-3.8,3.36-3.8s3.36,1.38,3.36,3.8v7.95c0,2.42-1.19,3.8-3.36,3.8s-3.36-1.38-3.36-3.8Zm4.51.15v-8.25c0-1.08-.44-1.49-1.15-1.49s-1.15.41-1.15,1.49v8.25c0,1.08.44,1.49,1.15,1.49s1.15-.41,1.15-1.49Z"/><path class="cls-2" d="m.48.72h13.56v4.67H5.45v8.64h6.83v4.67h-6.83v10.04h8.59v4.67H.48V.72Z"/><path class="cls-2" d="m16.58.72h4.8v32.67h-4.8V.72Z"/></g></svg>